<?xml version="1.0" encoding="UTF-8" standalone="no"?><svg xmlns="http://www.w3.org/2000/svg" xmlns:xlink="http://www.w3.org/1999/xlink" contentScriptType="application/ecmascript" contentStyleType="text/css" height="392px" preserveAspectRatio="none" style="width:792px;height:392px;background:#FFFFFF;" version="1.1" viewBox="0 0 792 392" width="792px" zoomAndPan="magnify"><defs><filter height="300%" id="f14gv368gmmjl8" width="300%" x="-1" y="-1"><feGaussianBlur result="blurOut" stdDeviation="2.0"/><feColorMatrix in="blurOut" result="blurOut2" type="matrix" values="0 0 0 0 0 0 0 0 0 0 0 0 0 0 0 0 0 0 .4 0"/><feOffset dx="4.0" dy="4.0" in="blurOut2" result="blurOut3"/><feBlend in="SourceGraphic" in2="blurOut3" mode="normal"/></filter></defs><g><!--MD5=[05aeeb26d56957c3fc175b9b884c9d50]
cluster Create-project-app--><rect fill="#FFFFFF" filter="url(#f14gv368gmmjl8)" height="109" style="stroke:#000000;stroke-width:1.5;" width="612" x="166.823" y="7"/><rect fill="#FFFFFF" height="10" style="stroke:#000000;stroke-width:1.5;" width="15" x="758.823" y="12"/><rect fill="#FFFFFF" height="2" style="stroke:#000000;stroke-width:1.5;" width="4" x="756.823" y="14"/><rect fill="#FFFFFF" height="2" style="stroke:#000000;stroke-width:1.5;" width="4" x="756.823" y="18"/><text fill="#000000" font-family="sans-serif" font-size="14" font-weight="bold" lengthAdjust="spacing" textLength="150" x="397.823" y="32.9951">Create-project-app</text><!--MD5=[f5c5713d8aba149b9fd323183b2ba83f]
cluster /src--><polygon fill="#FFFFFF" filter="url(#f14gv368gmmjl8)" points="174.823,34,210.823,34,217.823,56.2969,238.823,56.2969,238.823,108,174.823,108,174.823,34" style="stroke:#000000;stroke-width:1.5;"/><line style="stroke:#000000;stroke-width:1.5;" x1="174.823" x2="217.823" y1="56.2969" y2="56.2969"/><text fill="#000000" font-family="sans-serif" font-size="14" font-weight="bold" lengthAdjust="spacing" textLength="30" x="178.823" y="48.9951">/src</text><!--MD5=[5618bcc34724facd83096c5d6aeea6e5]
cluster /node_modules--><polygon fill="#FFFFFF" filter="url(#f14gv368gmmjl8)" points="246.823,34,371.823,34,378.823,56.2969,381.823,56.2969,381.823,108,246.823,108,246.823,34" style="stroke:#000000;stroke-width:1.5;"/><line style="stroke:#000000;stroke-width:1.5;" x1="246.823" x2="378.823" y1="56.2969" y2="56.2969"/><text fill="#000000" font-family="sans-serif" font-size="14" font-weight="bold" lengthAdjust="spacing" textLength="119" x="250.823" y="48.9951">/node_modules</text><!--MD5=[dd79fbc4d232c0913261c96a6e3eda97]
cluster /public/...--><polygon fill="#FFFFFF" filter="url(#f14gv368gmmjl8)" points="389.823,41,467.823,41,474.823,63.2969,770.823,63.2969,770.823,101,389.823,101,389.823,41" style="stroke:#000000;stroke-width:1.5;"/><line style="stroke:#000000;stroke-width:1.5;" x1="389.823" x2="474.823" y1="63.2969" y2="63.2969"/><text fill="#000000" font-family="sans-serif" font-size="14" font-weight="bold" lengthAdjust="spacing" textLength="72" x="393.823" y="55.9951">/public/...</text><path d="M64.8797,194.896 C77.3947,175.7432 89.5937,177.5238 103.3344,193.5565 C117.3645,173.4588 134.9255,174.7535 144.4363,197.8564 C157.7052,171.2577 172.2783,172.3989 190.266,193.3039 C203.1972,172.2277 225.0659,177.977 234.7646,196.8999 C245.0699,179.9767 262.8744,180.9269 272.7132,197.4296 C282.6853,178.5503 301.13,174.8281 312.6635,195.8669 C324.4056,178.1768 344.3103,172.4183 356.0823,195.8353 C369.6101,174.7911 384.4895,177.3542 398.2295,195.6078 C412.7489,179.5301 426.4595,177.3684 439.4517,197.3535 C454.5348,177.1968 468.2867,176.3524 483.0258,197.7145 C494.2045,177.2939 512.0367,176.1693 525.9907,194.6492 C545.0754,171.4293 560.4609,171.8831 573.828,199.9792 C584.7487,183.2226 601.8524,183.6931 613.1943,199.4695 C628.765,179.8783 643.5581,182.5166 657.823,201 C659.2919,200.5442 659.972,201.0255 659.7553,202.6024 C694.4621,220.726 698.0998,252.5596 666.873,276.9918 C698.5954,305.8204 686.5656,338.4175 650.823,353 C651.6417,351.6888 652.8126,351.9565 653.3908,353.2382 C643.6357,373.3962 624.2467,375.7033 612.8515,354.8599 C601.6255,377.1164 586.8888,380.742 569.4251,361.3663 C554.713,382.0278 535.8234,379.1171 524.0745,358.1389 C510.6887,380.1694 495.2718,376.6759 482.0467,357.9731 C468.4778,378.4382 453.605,377.4818 441.6729,356.3831 C430.4026,376.1473 418.8606,378.2361 403.9508,359.9956 C392.6015,380.899 370.9265,385.0964 357.2157,362.5347 C342.5892,378.5958 330.1124,381.7707 317.8041,360.1125 C304.3724,380.0677 286.1048,376.8302 275.098,357.4781 C258.6823,377.1393 243.4737,377.8796 228.982,355.3738 C217.2265,376.2589 203.7405,372.4899 190.9505,356.439 C178.0246,380.0142 160.8107,381.3641 146.5309,357.7123 C134.9247,376.285 115.3663,377.6139 104.2325,357.1998 C84.9346,380.9489 59.4481,376.8734 51.823,346 C52.8906,345.5639 53.7091,345.8628 53.6473,347.1771 C18.1492,330.7733 18.0858,303.8756 43.2025,278.2823 C6,248.718 18.4889,209.194 58.823,194 C60.8006,191.4387 63.7285,191.871 64.8797,194.896 " fill="#FFFFFF" filter="url(#f14gv368gmmjl8)" style="stroke:#000000;stroke-width:1.5;"/><!--MD5=[e3461b2323883bec042d3b324998f147]
cluster localhost:3000--><rect fill="#FFFFFF" filter="url(#f14gv368gmmjl8)" height="159" style="stroke:#000000;stroke-width:1.5;" width="606" x="51.823" y="194"/><line style="stroke:#000000;stroke-width:1.5;" x1="51.823" x2="657.823" y1="214.2969" y2="214.2969"/><text fill="#000000" font-family="sans-serif" font-size="14" font-weight="bold" lengthAdjust="spacing" textLength="117" x="296.323" y="208.9951">localhost:3000</text><!--MD5=[55bed337f4e802cfb02f3905284512c7]
entity SrcPath--><rect fill="#FEFECE" filter="url(#f14gv368gmmjl8)" height="39.2969" style="stroke:#000000;stroke-width:1.5;" width="47" x="183.323" y="61"/><polygon fill="#FEFECE" points="213.323,66,213.323,80,225.323,80,225.323,72,219.323,66,213.323,66" style="stroke:#000000;stroke-width:1.5;"/><line style="stroke:#000000;stroke-width:1.5;" x1="219.323" x2="219.323" y1="66" y2="72"/><line style="stroke:#000000;stroke-width:1.5;" x1="225.323" x2="219.323" y1="72" y2="72"/><text fill="#000000" font-family="sans-serif" font-size="14" lengthAdjust="spacing" textLength="17" x="193.323" y="86.9951">/...</text><!--MD5=[95ecadd3769d7c16b926c39752c88b05]
entity SecondArtifact--><rect fill="#FEFECE" filter="url(#f14gv368gmmjl8)" height="39.2969" style="stroke:#000000;stroke-width:1.5;" width="47" x="269.323" y="61"/><polygon fill="#FEFECE" points="299.323,66,299.323,80,311.323,80,311.323,72,305.323,66,299.323,66" style="stroke:#000000;stroke-width:1.5;"/><line style="stroke:#000000;stroke-width:1.5;" x1="305.323" x2="305.323" y1="66" y2="72"/><line style="stroke:#000000;stroke-width:1.5;" x1="311.323" x2="305.323" y1="72" y2="72"/><text fill="#000000" font-family="sans-serif" font-size="14" lengthAdjust="spacing" textLength="17" x="279.323" y="86.9951">/...</text><path d="M397.323,68 L397.323,93.1328 A0,0 0 0 0 397.323,93.1328 L449.9687,93.1328 L465.6615,220.8064 L457.9687,93.1328 L508.323,93.1328 A0,0 0 0 0 508.323,93.1328 L508.323,78 L498.323,68 L397.323,68 A0,0 0 0 0 397.323,68 " fill="#FFFFE0" filter="url(#f14gv368gmmjl8)" style="stroke:#000000;stroke-width:1.0;"/><path d="M498.323,68 L498.323,78 L508.323,78 L498.323,68 " fill="#FFFFE0" style="stroke:#000000;stroke-width:1.0;"/><text fill="#000000" font-family="sans-serif" font-size="13" lengthAdjust="spacing" textLength="90" x="403.323" y="85.0669">/manifest.json</text><path d="M543.823,68 L543.823,93.1328 A0,0 0 0 0 543.823,93.1328 L586.9687,93.1328 L602.6615,220.8064 L594.9687,93.1328 L635.823,93.1328 A0,0 0 0 0 635.823,93.1328 L635.823,78 L625.823,68 L543.823,68 A0,0 0 0 0 543.823,68 " fill="#FFFFE0" filter="url(#f14gv368gmmjl8)" style="stroke:#000000;stroke-width:1.0;"/><path d="M625.823,68 L625.823,78 L635.823,78 L625.823,68 " fill="#FFFFE0" style="stroke:#000000;stroke-width:1.0;"/><text fill="#000000" font-family="sans-serif" font-size="13" lengthAdjust="spacing" textLength="71" x="549.823" y="85.0669">/favicon.ico</text><path d="M670.823,68 L670.823,93.1328 L762.823,93.1328 L762.823,78 L752.823,68 L670.823,68 " fill="#FFFFE0" filter="url(#f14gv368gmmjl8)" style="stroke:#000000;stroke-width:1.0;"/><path d="M752.823,68 L752.823,78 L762.823,78 L752.823,68 " fill="#FFFFE0" style="stroke:#000000;stroke-width:1.0;"/><text fill="#000000" font-family="sans-serif" font-size="13" lengthAdjust="spacing" textLength="71" x="676.823" y="85.0669">/index.html</text><path d="M60.323,221 L60.323,246.1328 L173.323,246.1328 L173.323,231 L163.323,221 L60.323,221 " fill="#FFFFE0" filter="url(#f14gv368gmmjl8)" style="stroke:#000000;stroke-width:1.0;"/><path d="M163.323,221 L163.323,231 L173.323,231 L163.323,221 " fill="#FFFFE0" style="stroke:#000000;stroke-width:1.0;"/><text fill="#000000" font-family="sans-serif" font-size="13" lengthAdjust="spacing" textLength="92" x="66.323" y="238.0669">/main.chunk.js</text><path d="M208.823,221 L208.823,246.1328 L376.823,246.1328 L376.823,231 L366.823,221 L208.823,221 " fill="#FFFFE0" filter="url(#f14gv368gmmjl8)" style="stroke:#000000;stroke-width:1.0;"/><path d="M366.823,221 L366.823,231 L376.823,231 L366.823,221 " fill="#FFFFE0" style="stroke:#000000;stroke-width:1.0;"/><text fill="#000000" font-family="sans-serif" font-size="13" lengthAdjust="spacing" textLength="147" x="214.823" y="238.0669">/vendor~main.chunk.js</text><path d="M411.323,221 L411.323,246.1328 L522.323,246.1328 L522.323,231 L512.323,221 L411.323,221 " fill="#FFFFE0" filter="url(#f14gv368gmmjl8)" style="stroke:#000000;stroke-width:1.0;"/><path d="M512.323,221 L512.323,231 L522.323,231 L512.323,221 " fill="#FFFFE0" style="stroke:#000000;stroke-width:1.0;"/><text fill="#000000" font-family="sans-serif" font-size="13" lengthAdjust="spacing" textLength="90" x="417.323" y="238.0669">/manifest.json</text><path d="M557.823,221 L557.823,246.1328 L649.823,246.1328 L649.823,231 L639.823,221 L557.823,221 " fill="#FFFFE0" filter="url(#f14gv368gmmjl8)" style="stroke:#000000;stroke-width:1.0;"/><path d="M639.823,221 L639.823,231 L649.823,231 L639.823,221 " fill="#FFFFE0" style="stroke:#000000;stroke-width:1.0;"/><text fill="#000000" font-family="sans-serif" font-size="13" lengthAdjust="spacing" textLength="71" x="563.823" y="238.0669">/favicon.ico</text><path d="M296.823,313 L296.823,338.1328 A0,0 0 0 0 296.823,338.1328 L378.823,338.1328 A0,0 0 0 0 378.823,338.1328 L378.823,331 L413.5831,325.5 L378.823,323 L378.823,323 L368.823,313 L296.823,313 A0,0 0 0 0 296.823,313 " fill="#FFFFE0" filter="url(#f14gv368gmmjl8)" style="stroke:#000000;stroke-width:1.0;"/><path d="M368.823,313 L368.823,323 L378.823,323 L368.823,313 " fill="#FFFFE0" style="stroke:#000000;stroke-width:1.0;"/><text fill="#000000" font-family="sans-serif" font-size="13" lengthAdjust="spacing" textLength="61" x="302.823" y="330.0669">/bundle.js</text><!--MD5=[7257c51d9442a7b0f1d4c20434a6d129]
entity IndexCloud--><rect fill="#FFFFFF" filter="url(#f14gv368gmmjl8)" height="39.2969" style="stroke:#000000;stroke-width:1.5;" width="106" x="413.823" y="306"/><polygon fill="#FFFFFF" points="502.823,311,502.823,325,514.823,325,514.823,317,508.823,311,502.823,311" style="stroke:#000000;stroke-width:1.5;"/><line style="stroke:#000000;stroke-width:1.5;" x1="508.823" x2="508.823" y1="311" y2="317"/><line style="stroke:#000000;stroke-width:1.5;" x1="514.823" x2="508.823" y1="317" y2="317"/><text fill="#000000" font-family="sans-serif" font-size="14" lengthAdjust="spacing" textLength="76" x="423.823" y="331.9951">/index.html</text><!--MD5=[078298b0e1964e46b6de3ed3dd259ae7]
link MainChunk to IndexCloud--><path d="M166.4624,246.0606 C222.4897,260.3056 316.3233,284.3677 396.823,306 C400.6779,307.0359 404.6492,308.1136 408.6492,309.207 " fill="none" id="MainChunk-to-IndexCloud" style="stroke:#A80036;stroke-width:1.0;"/><polygon fill="#A80036" points="413.7247,310.5983,406.1026,304.361,408.9026,309.2763,403.9874,312.0763,413.7247,310.5983" style="stroke:#A80036;stroke-width:1.0;"/><!--MD5=[635538e852bb63b805bbd33745f5fadc]
link VendorMainChunk to IndexCloud--><path d="M316.6521,246.0993 C344.6218,260.8879 391.4908,285.6692 425.4388,303.6187 " fill="none" id="VendorMainChunk-to-IndexCloud" style="stroke:#A80036;stroke-width:1.0;"/><polygon fill="#A80036" points="429.9304,305.9936,423.8437,298.2507,425.5102,303.6565,420.1044,305.323,429.9304,305.9936" style="stroke:#A80036;stroke-width:1.0;"/><!--MD5=[10642c20cbff1751968e0fea4491ea2d]
link ManifestCloud to IndexCloud--><path d="M466.823,246.2922 C466.823,260.2525 466.823,282.9502 466.823,300.4774 " fill="none" id="ManifestCloud-to-IndexCloud" style="stroke:#A80036;stroke-width:1.0;"/><polygon fill="#A80036" points="466.823,305.7354,470.823,296.7354,466.823,300.7354,462.823,296.7354,466.823,305.7354" style="stroke:#A80036;stroke-width:1.0;"/><!--MD5=[ffa6996433ed99e2f66b67d694d87e8e]
link FaviconCloud to IndexCloud--><path d="M585.061,246.0993 C563.2187,260.7671 526.7378,285.2652 500.0637,303.1778 " fill="none" id="FaviconCloud-to-IndexCloud" style="stroke:#A80036;stroke-width:1.0;"/><polygon fill="#A80036" points="495.8706,305.9936,505.5722,304.2968,500.0215,303.2061,501.1122,297.6554,495.8706,305.9936" style="stroke:#A80036;stroke-width:1.0;"/><!--MD5=[347170510d4307a5b0a3350ba4d6d281]
link SrcPath to MainChunk--><path d="M195.2413,100.1889 C177.3956,130.5265 143.4863,188.1725 126.7186,216.6775 " fill="none" id="SrcPath-to-MainChunk" style="stroke:#A80036;stroke-width:1.0;"/><polygon fill="#A80036" points="124.1797,220.9936,132.1906,215.2643,126.7148,216.6839,125.2951,211.2081,124.1797,220.9936" style="stroke:#A80036;stroke-width:1.0;"/><!--MD5=[632bf80ad228cb6d51c965897794658b]
link SecondArtifact to VendorMainChunk--><path d="M292.823,100.1889 C292.823,130.2768 292.823,187.2254 292.823,215.9678 " fill="none" id="SecondArtifact-to-VendorMainChunk" style="stroke:#A80036;stroke-width:1.0;"/><polygon fill="#A80036" points="292.823,220.9936,296.823,211.9936,292.823,215.9936,288.823,211.9936,292.823,220.9936" style="stroke:#A80036;stroke-width:1.0;"/><!--MD5=[5329e51bc9c9a3f5ce6d804c99b14845]
link IndexNote to IndexCloud--><path d="M716.6719,93.0728 C715.6364,123.3506 708.885,201.1201 667.823,246 C629.1928,288.222 565.2596,308.352 519.8779,317.7275 " fill="none" id="IndexNote-to-IndexCloud" style="stroke:#A80036;stroke-width:1.0;"/><!--MD5=[3a3a0ffef4081f1d5bd3446dd023d0bc]
@startuml
skinparam PackageMargin 20

skinparam component {    
  BorderColor black
  BackgroundColor white
  Padding 400
  Margin 400

}

skinparam note {    
  BorderColor black
  BackgroundColor lightyellow
}

component Create-project-app {
  package "/src" {  
    artifact "/..." as SrcPath
  }
  
  package "/node_modules" {  
    artifact "/..." as SecondArtifact
  }
  
  package "/public/..." {  
    note "/manifest.json" as ManifestNote
    note "/favicon.ico" as FaviconNote
    note "/index.html" as IndexNote
  }
}

cloud {
  card "localhost:3000" {
    note "/main.chunk.js" as MainChunk
    note "/vendor~main.chunk.js" as VendorMainChunk
    note "/manifest.json" as ManifestCloud
    note "/favicon.ico" as FaviconCloud
    
    note "/bundle.js" as BundleCloud
    artifact #white "/index.html" as IndexCloud
    
    MainChunk - -> IndexCloud
    VendorMainChunk - -> IndexCloud
    ManifestCloud - -> IndexCloud
    FaviconCloud - -> IndexCloud
    BundleCloud -> IndexCloud
  } 
} 

SrcPath - - -> MainChunk
SecondArtifact - - -> VendorMainChunk
ManifestNote - - -> ManifestCloud
FaviconNote - - -> FaviconCloud
IndexNote - - -> IndexCloud
@enduml

PlantUML version 1.2021.7(Sun May 23 12:40:07 UTC 2021)
(GPL source distribution)
Java Runtime: OpenJDK Runtime Environment
JVM: OpenJDK 64-Bit Server VM
Default Encoding: UTF-8
Language: en
Country: US
--></g></svg>